<?xml version="1.0" encoding="UTF-8"?>
<svg width="115px" height="78px" viewBox="0 0 115 78" version="1.1" xmlns="http://www.w3.org/2000/svg" xmlns:xlink="http://www.w3.org/1999/xlink">
    <!-- Generator: sketchtool 39.1 (31720) - http://www.bohemiancoding.com/sketch -->
    <title>187094F2-85F7-48EB-9B15-4FD4D007988C</title>
    <desc>Created with sketchtool.</desc>
    <defs></defs>
    <g id="Page-1" stroke="none" stroke-width="1" fill="none" fill-rule="evenodd">
        <g id="Success" transform="translate(-348.000000, -372.000000)">
            <g id="Group-2" transform="translate(248.000000, 372.000000)">
                <g id="Group" transform="translate(100.000000, 0.000000)">
                    <ellipse id="Oval-2" fill="#55ED20" cx="56" cy="53" rx="25" ry="25"></ellipse>
                    <polygon id="checked-(1)" fill="#FFFFFF" points="52.2559078 63 42 52.722838 43.8205282 50.8988738 52.2559078 59.351749 68.5742897 43 70.3944962 44.8242867"></polygon>
                    <circle id="Oval-3" fill="#55ED20" cx="66" cy="4" r="4"></circle>
                    <circle id="Oval-3-Copy-7" fill="#55ED20" cx="17" cy="67" r="4"></circle>
                    <circle id="Oval-3-Copy" fill="#55ED20" cx="75" cy="22" r="2"></circle>
                    <circle id="Oval-3-Copy-10" fill="#55ED20" cx="93" cy="65" r="2"></circle>
                    <circle id="Oval-3-Copy-9" fill="#55ED20" cx="113" cy="48" r="2"></circle>
                    <path d="M20,40 C21.6568542,40 23,38.6568542 23,37 C23,35.3431458 21.6568542,34 20,34 C18.3431458,34 17,35.3431458 17,37 C17,38.6568542 18.3431458,40 20,40 Z" id="Oval-3-Copy-4" fill="#55ED20"></path>
                    <circle id="Oval-3-Copy-2" fill="#55ED20" cx="98" cy="12" r="2"></circle>
                    <circle id="Oval-3-Copy-6" fill="#55ED20" transform="translate(94.500000, 39.500000) scale(1, -1) translate(-94.500000, -39.500000) " cx="94.5" cy="39.5" r="6.5"></circle>
                    <circle id="Oval-3-Copy-5" fill="#55ED20" cx="44" cy="20" r="2"></circle>
                    <circle id="Oval-3-Copy-8" fill="#55ED20" cx="2" cy="55" r="2"></circle>
                    <circle id="Oval-3-Copy-3" fill="#55ED20" cx="31" cy="10" r="2"></circle>
                </g>
            </g>
        </g>
    </g>
</svg>