<?xml version="1.0" encoding="UTF-8"?>
<svg width="25px" height="23px" viewBox="0 0 25 23" version="1.1" xmlns="http://www.w3.org/2000/svg" xmlns:xlink="http://www.w3.org/1999/xlink">
    <!-- Generator: sketchtool 39.1 (31720) - http://www.bohemiancoding.com/sketch -->
    <title>FD6B8705-FDFB-4A96-B599-0A9149F8DB14</title>
    <desc>Created with sketchtool.</desc>
    <defs></defs>
    <g id="Page-1" stroke="none" stroke-width="1" fill="none" fill-rule="evenodd">
        <g id="Go-back" transform="translate(-394.000000, -429.000000)" fill="#FF6161">
            <g id="error" transform="translate(249.000000, 429.000000)">
                <g id="sign" transform="translate(145.000000, 0.000000)">
                    <path d="M24.7039634,19.5957659 L14.2230488,1.05809465 C13.4517683,-0.30641345 11.5241463,-0.306911582 10.752439,1.05809465 L0.27152439,19.5957659 C-0.499695122,20.960274 0.463536585,22.6650685 2.00695122,22.6650685 L22.9685366,22.6650685 C24.5114634,22.6650685 25.4756707,20.9607098 24.7039634,19.5957659 L24.7039634,19.5957659 Z M22.9685366,20.7899751 L2.00695122,20.7899751 C1.87664634,20.7899751 1.79664634,20.6486924 1.86189024,20.5331258 L12.342561,1.99570361 C12.4078049,1.88044832 12.567622,1.88019925 12.6329268,1.99570361 L23.1135366,20.5331258 C23.1788415,20.6484433 23.0992683,20.7899751 22.9685366,20.7899751 L22.9685366,20.7899751 Z" id="Fill-1"></path>
                    <path d="M12.4878659,7.81251557 C11.9807317,7.81251557 11.5696341,8.23231631 11.5696341,8.7501868 L11.5696341,14.124533 C11.5696341,14.6421544 11.9807317,15.0619552 12.4878659,15.0619552 C12.9946951,15.0619552 13.4057927,14.6421544 13.4057927,14.124533 L13.4057927,8.7501868 C13.4057927,8.23231631 12.994939,7.81251557 12.4878659,7.81251557 L12.4878659,7.81251557 Z" id="Fill-4"></path>
                    <path d="M12.4878659,16.2800747 C11.9807317,16.2800747 11.5696341,16.6998755 11.5696341,17.2176837 L11.5696341,17.777335 C11.5696341,18.2952055 11.9807317,18.7150062 12.4878659,18.7150062 C12.9946951,18.7150062 13.4057927,18.2952055 13.4057927,17.777335 L13.4057927,17.2176837 C13.4057927,16.6996264 12.994939,16.2800747 12.4878659,16.2800747 L12.4878659,16.2800747 Z" id="Fill-5"></path>
                    <path d="M24.7039634,19.5957659 L14.2230488,1.05809465 C13.4517683,-0.30641345 11.5241463,-0.306911582 10.752439,1.05809465 L0.27152439,19.5957659 C-0.499695122,20.960274 0.463536585,22.6650685 2.00695122,22.6650685 L22.9685366,22.6650685 C24.5114634,22.6650685 25.4756707,20.9607098 24.7039634,19.5957659 L24.7039634,19.5957659 Z M22.9685366,20.7899751 L2.00695122,20.7899751 C1.87664634,20.7899751 1.79664634,20.6486924 1.86189024,20.5331258 L12.342561,1.99570361 C12.4078049,1.88044832 12.567622,1.88019925 12.6329268,1.99570361 L23.1135366,20.5331258 C23.1788415,20.6484433 23.0992683,20.7899751 22.9685366,20.7899751 L22.9685366,20.7899751 Z" id="Fill-1"></path>
                    <path d="M12.4878659,16.2800747 C11.9807317,16.2800747 11.5696341,16.6998755 11.5696341,17.2176837 L11.5696341,17.777335 C11.5696341,18.2952055 11.9807317,18.7150062 12.4878659,18.7150062 C12.9946951,18.7150062 13.4057927,18.2952055 13.4057927,17.777335 L13.4057927,17.2176837 C13.4057927,16.6996264 12.994939,16.2800747 12.4878659,16.2800747 L12.4878659,16.2800747 Z" id="Fill-5"></path>
                </g>
            </g>
        </g>
    </g>
</svg>